<svg xmlns="http://www.w3.org/2000/svg" viewBox="0 0 64 64"><rect rx="10" ry="10" width="64" height="64" fill="#49c8bb"/><rect x="10" y="10" width="44" height="44" rx="8" fill="#fff"/><g fill="#000"><rect x="14" y="14" width="12" height="12"/><rect x="38" y="14" width="12" height="12"/><rect x="14" y="38" width="12" height="12"/><rect x="26" y="26" width="4" height="4"/><rect x="30" y="26" width="4" height="4"/><rect x="34" y="26" width="4" height="4"/><rect x="26" y="30" width="4" height="4"/><rect x="34" y="30" width="4" height="4"/><rect x="26" y="34" width="4" height="4"/><rect x="30" y="34" width="4" height="4"/><rect x="34" y="34" width="4" height="4"/></g><rect x="18" y="18" width="4" height="4" fill="#fff"/><rect x="42" y="18" width="4" height="4" fill="#fff"/><rect x="18" y="42" width="4" height="4" fill="#fff"/></svg>