<?xml version="1.0" encoding="UTF-8"?>
<svg id="Layer_1" xmlns="http://www.w3.org/2000/svg" version="1.1" viewBox="0 0 64 64">
  <!-- Generator: Adobe Illustrator 29.7.1, SVG Export Plug-In . SVG Version: 2.1.1 Build 8)  -->
  <defs>
    <style>
      .st0 {
        fill: #fff;
      }

      .st1 {
        fill: none;
        stroke: #000;
        stroke-linecap: round;
        stroke-width: 3px;
      }

      .st2 {
        fill: #49c8bb;
      }
    </style>
  </defs>
  <rect class="st2" width="64" height="64" rx="10" ry="10"/>
  <rect class="st0" x="10" y="10" width="44" height="44" rx="8" ry="8"/>
  <g>
    <line class="st1" x1="28" y1="27.3" x2="36" y2="27.3"/>
    <line class="st1" x1="32" y1="31.3" x2="32" y2="35.3"/>
    <line class="st1" x1="36" y1="35.3" x2="40" y2="35.3"/>
    <line class="st1" x1="28" y1="35.3" x2="28" y2="39.3"/>
  </g>
  <circle cx="20" cy="20" r="1.9"/>
  <circle cx="20" cy="44" r="1.9"/>
  <circle cx="44" cy="20" r="1.9"/>
  <path d="M17.5,24.3c-1,0-1.8-.8-1.8-1.8v-4.9c0-1,.8-1.8,1.8-1.8h4.9c1,0,1.8.8,1.8,1.8v4.9c0,1-.8,1.8-1.8,1.8h-4.9ZM17.5,16.9c-.3,0-.6.3-.6.6v4.9c0,.3.3.6.6.6h4.9c.3,0,.6-.3.6-.6v-4.9c0-.3-.3-.6-.6-.6h-4.9Z"/>
  <path d="M17.5,48.3c-1,0-1.8-.8-1.8-1.8v-4.9c0-1,.8-1.8,1.8-1.8h4.9c1,0,1.8.8,1.8,1.8v4.9c0,1-.8,1.8-1.8,1.8h-4.9ZM17.5,40.9c-.3,0-.6.3-.6.6v4.9c0,.3.3.6.6.6h4.9c.3,0,.6-.3.6-.6v-4.9c0-.3-.3-.6-.6-.6h-4.9Z"/>
  <path d="M41.5,24.3c-1,0-1.8-.8-1.8-1.8v-4.9c0-1,.8-1.8,1.8-1.8h4.9c1,0,1.8.8,1.8,1.8v4.9c0,1-.8,1.8-1.8,1.8h-4.9ZM41.5,16.9c-.3,0-.6.3-.6.6v4.9c0,.3.3.6.6.6h4.9c.3,0,.6-.3.6-.6v-4.9c0-.3-.3-.6-.6-.6h-4.9Z"/>
</svg>